<mxfile host="65bd71144e">
    <diagram id="rDKWHRp-vBeroj9mGW1Y" name="Seite-1">
        <mxGraphModel dx="5783" dy="929" grid="1" gridSize="10" guides="1" tooltips="1" connect="1" arrows="1" fold="1" page="1" pageScale="1" pageWidth="827" pageHeight="1169" math="0" shadow="0">
            <root>
                <mxCell id="0"/>
                <mxCell id="1" parent="0"/>
                <mxCell id="30" value="TI-Messenger für Versicherte&amp;nbsp;" style="rounded=1;whiteSpace=wrap;html=1;fillColor=none;verticalAlign=bottom;fontSize=16;fontStyle=1" vertex="1" parent="1">
                    <mxGeometry x="-4130" y="400" width="810" height="350" as="geometry"/>
                </mxCell>
                <mxCell id="29" value="&lt;b&gt;&lt;font style=&quot;font-size: 16px;&quot;&gt;TI-Messenger 1.1.1&lt;/font&gt;&lt;/b&gt;" style="rounded=1;whiteSpace=wrap;html=1;fillColor=none;verticalAlign=bottom;" vertex="1" parent="1">
                    <mxGeometry x="-4130" y="20" width="810" height="350" as="geometry"/>
                </mxCell>
                <mxCell id="7" value="TI-Messenger-Service" style="html=1;strokeColor=#1C1C1C;fillColor=#E6E6E6;fontFamily=Tahoma;fontSize=14;fontColor=#525252;align=left;verticalAlign=top;spacingLeft=4;strokeWidth=2;" vertex="1" parent="1">
                    <mxGeometry x="-3830" y="42.5" width="480" height="287.5" as="geometry"/>
                </mxCell>
                <mxCell id="9" value="Matrix-Homeserver" style="html=1;strokeColor=#1C1C1C;fillColor=#E6E6E6;fontFamily=Tahoma;fontSize=14;fontColor=#525252;align=left;verticalAlign=top;spacingLeft=4;strokeWidth=2;" vertex="1" parent="1">
                    <mxGeometry x="-3580" y="150" width="210" height="160" as="geometry"/>
                </mxCell>
                <mxCell id="10" value="TI-Messenger-Client" style="html=1;strokeColor=#1C1C1C;fillColor=#E6E6E6;fontFamily=Tahoma;fontSize=14;fontColor=#525252;align=left;verticalAlign=top;spacingLeft=4;strokeWidth=2;" vertex="1" parent="1">
                    <mxGeometry x="-4110" y="42.5" width="160" height="287.5" as="geometry"/>
                </mxCell>
                <mxCell id="12" value="" style="group" vertex="1" connectable="0" parent="1">
                    <mxGeometry x="-3810" y="150" width="210" height="160" as="geometry"/>
                </mxCell>
                <mxCell id="8" value="Messenger-Proxy" style="html=1;strokeColor=#1C1C1C;fillColor=#E6E6E6;fontFamily=Tahoma;fontSize=14;fontColor=#525252;align=left;verticalAlign=top;spacingLeft=4;strokeWidth=2;" vertex="1" parent="12">
                    <mxGeometry width="210" height="160" as="geometry"/>
                </mxCell>
                <mxCell id="6" value="Berechtigungsprüfung" style="html=1;strokeColor=#1C1C1C;fillColor=#ffffff;fontFamily=Tahoma;fontSize=14;fontColor=#525252;align=center;strokeWidth=2;" vertex="1" parent="12">
                    <mxGeometry x="30" y="40" width="150" height="40" as="geometry"/>
                </mxCell>
                <mxCell id="11" value="persönliche Kontakte" style="html=1;strokeColor=#1C1C1C;fillColor=#ffffff;fontFamily=Tahoma;fontSize=14;fontColor=#525252;align=center;strokeWidth=2;" vertex="1" parent="12">
                    <mxGeometry x="30" y="100" width="150" height="40" as="geometry"/>
                </mxCell>
                <mxCell id="17" style="edgeStyle=none;html=1;entryX=0;entryY=0.213;entryDx=0;entryDy=0;entryPerimeter=0;" edge="1" parent="1" target="8">
                    <mxGeometry relative="1" as="geometry">
                        <mxPoint x="-3950" y="184" as="sourcePoint"/>
                        <mxPoint x="-3810" y="184.07999999999993" as="targetPoint"/>
                    </mxGeometry>
                </mxCell>
                <mxCell id="18" style="edgeStyle=none;html=1;" edge="1" parent="1" source="8">
                    <mxGeometry relative="1" as="geometry">
                        <mxPoint x="-3810" y="228.74642857142862" as="sourcePoint"/>
                        <mxPoint x="-3950" y="230" as="targetPoint"/>
                    </mxGeometry>
                </mxCell>
                <mxCell id="19" value="TI-Messenger-Service" style="html=1;strokeColor=#1C1C1C;fillColor=#E6E6E6;fontFamily=Tahoma;fontSize=14;fontColor=#525252;align=left;verticalAlign=top;spacingLeft=4;strokeWidth=2;" vertex="1" parent="1">
                    <mxGeometry x="-3830" y="420" width="480" height="287.5" as="geometry"/>
                </mxCell>
                <mxCell id="20" value="Matrix-Homeserver" style="html=1;strokeColor=#1C1C1C;fillColor=#E6E6E6;fontFamily=Tahoma;fontSize=14;fontColor=#525252;align=left;verticalAlign=top;spacingLeft=4;strokeWidth=2;" vertex="1" parent="1">
                    <mxGeometry x="-3580" y="527.5" width="210" height="160" as="geometry"/>
                </mxCell>
                <mxCell id="21" value="TI-Messenger-Client" style="html=1;strokeColor=#1C1C1C;fillColor=#E6E6E6;fontFamily=Tahoma;fontSize=14;fontColor=#525252;align=left;verticalAlign=top;spacingLeft=4;strokeWidth=2;" vertex="1" parent="1">
                    <mxGeometry x="-4110" y="420" width="160" height="287.5" as="geometry"/>
                </mxCell>
                <mxCell id="26" style="edgeStyle=none;html=1;entryX=0;entryY=0.213;entryDx=0;entryDy=0;entryPerimeter=0;" edge="1" parent="1" target="23">
                    <mxGeometry relative="1" as="geometry">
                        <mxPoint x="-3950" y="561.5" as="sourcePoint"/>
                        <mxPoint x="-3810" y="561.5799999999999" as="targetPoint"/>
                    </mxGeometry>
                </mxCell>
                <mxCell id="27" style="edgeStyle=none;html=1;" edge="1" parent="1" source="23">
                    <mxGeometry relative="1" as="geometry">
                        <mxPoint x="-3810" y="606.2464285714286" as="sourcePoint"/>
                        <mxPoint x="-3950" y="607.5" as="targetPoint"/>
                    </mxGeometry>
                </mxCell>
                <mxCell id="23" value="Messenger-Proxy" style="html=1;strokeColor=#1C1C1C;fillColor=#E6E6E6;fontFamily=Tahoma;fontSize=14;fontColor=#525252;align=left;verticalAlign=top;spacingLeft=4;strokeWidth=2;" vertex="1" parent="1">
                    <mxGeometry x="-3810" y="527.5" width="210" height="160" as="geometry"/>
                </mxCell>
                <mxCell id="24" value="Berechtigungsstufe 1&amp;nbsp;&lt;br&gt;(Föderationsprüfung)" style="html=1;strokeColor=#1C1C1C;fillColor=#ffffff;fontFamily=Tahoma;fontSize=14;fontColor=#525252;align=center;strokeWidth=2;" vertex="1" parent="1">
                    <mxGeometry x="-3780" y="567.5" width="150" height="40" as="geometry"/>
                </mxCell>
                <mxCell id="25" value="persönliche Kontakte" style="html=1;strokeColor=#1C1C1C;fillColor=#ffffff;fontFamily=Tahoma;fontSize=14;fontColor=#525252;align=center;strokeWidth=2;" vertex="1" parent="1">
                    <mxGeometry x="-4105" y="527.5" width="150" height="40" as="geometry"/>
                </mxCell>
                <mxCell id="28" value="Berechtigungsprüfung" style="html=1;strokeColor=#1C1C1C;fillColor=#ffffff;fontFamily=Tahoma;fontSize=14;fontColor=#525252;align=center;strokeWidth=2;" vertex="1" parent="1">
                    <mxGeometry x="-4105" y="470" width="150" height="40" as="geometry"/>
                </mxCell>
            </root>
        </mxGraphModel>
    </diagram>
</mxfile>